<?xml version="1.0" standalone="no"?>
<!DOCTYPE svg PUBLIC "-//W3C//DTD SVG 20010904//EN"
 "http://www.w3.org/TR/2001/REC-SVG-20010904/DTD/svg10.dtd">
<svg version="1.0" xmlns="http://www.w3.org/2000/svg"
 width="1024.000000pt" height="1024.000000pt" viewBox="0 0 1024.000000 1024.000000"
 preserveAspectRatio="xMidYMid meet">
<metadata>
Created by potrace 1.11, written by Peter Selinger 2001-2013
</metadata>
<g transform="translate(0.000000,1024.000000) scale(0.100000,-0.100000)"
fill="#000000" stroke="none">
<path d="M4025 8611 c-80 -36 -132 -123 -123 -205 4 -29 480 -985 1588 -3191
870 -1732 1591 -3162 1601 -3177 43 -60 131 -89 207 -68 56 14 117 70 136 123
21 56 1383 4594 1395 4647 21 93 -32 188 -128 228 -156 67 -4576 1662 -4603
1662 -18 0 -51 -9 -73 -19z"/>
<path d="M2915 8261 c-48 -21 -99 -77 -113 -123 -6 -18 -322 -1070 -703 -2337
-639 -2132 -691 -2309 -687 -2363 5 -63 38 -117 94 -150 54 -31 4604 -1678
4637 -1678 18 0 57 12 85 26 74 37 115 105 109 184 -3 50 -143 333 -1592 3218
-1242 2474 -1596 3169 -1622 3192 -57 51 -139 63 -208 31z"/>
</g>
</svg>
